<svg id="head-graph-svg" viewBox="300 280 450 350" preserveAspectRatio="xMidYMin meet"
    xmlns="http://www.w3.org/2000/svg">
    <path
        d="M0 0 C337.92 0 675.84 0 1024 0 C1024 337.92 1024 675.84 1024 1024 C686.08 1024 348.16 1024 0 1024 C0 686.08 0 348.16 0 0 Z "
        fill="none" transform="translate(0,0)" />
    <path
        d="M0 0 C1.58 0.27 1.58 0.27 3.19 0.55 C31.54 5.87 59.16 20.1 76.62 43.62 C83.92 54.63 88.93 66.17 92 79 C92.18 79.64 92.36 80.27 92.54 80.93 C93.01 83.06 93.09 84.86 93.03 87.03 C93.01 88.2 93.01 88.2 92.98 89.4 C92.97 90.23 92.95 91.07 92.93 91.93 C92.92 93.71 92.91 95.49 92.91 97.28 C92.9 100.08 92.87 102.88 92.8 105.68 C92.44 114.44 92.44 114.44 94 123 C97.28 126.42 100.52 127.68 105 129 C114.91 135.31 120.92 148.34 123.46 159.48 C126.37 178.41 122.58 197.76 111.26 213.4 C105.22 220.15 96.25 225.4 87.21 226.43 C84.1 226.44 81.09 226.32 78 226 C77.9 226.66 77.8 227.32 77.69 228 C71.94 252.93 53.57 276.01 32.48 289.91 C14.69 300.85 -4.22 307.42 -25.25 307.31 C-26.35 307.31 -27.44 307.3 -28.57 307.3 C-56.91 306.89 -81 294.42 -101.19 275.25 C-109.84 266.22 -116.66 256.4 -122.06 245.12 C-122.62 243.97 -122.62 243.97 -123.18 242.79 C-125.54 237.63 -126.99 232.57 -128 227 C-128.98 227.09 -128.98 227.09 -129.98 227.18 C-140.82 227.71 -149.72 223.87 -157.97 216.93 C-164.95 210.28 -168.81 203.04 -172 194 C-172.32 193.14 -172.64 192.28 -172.97 191.39 C-177.73 176.8 -175.69 159.51 -169.38 145.75 C-163.69 135.25 -155.5 126.83 -144 123 C-143.99 121.97 -143.98 120.94 -143.97 119.87 C-143.93 115.96 -143.87 112.04 -143.79 108.13 C-143.76 106.45 -143.74 104.77 -143.73 103.09 C-143.48 75.46 -135.01 50.72 -115 31 C-84.7 3.36 -40.16 -8.44 0 0 Z "
        fill="#FAF6EC" transform="translate(540,297)" />
    <path
        d="M0 0 C1.58 0.27 1.58 0.27 3.19 0.55 C31.54 5.87 59.16 20.1 76.62 43.62 C83.92 54.63 88.93 66.17 92 79 C92.18 79.64 92.36 80.27 92.54 80.93 C93.01 83.06 93.09 84.86 93.03 87.03 C93.01 88.2 93.01 88.2 92.98 89.4 C92.97 90.23 92.95 91.07 92.93 91.93 C92.92 93.71 92.91 95.49 92.91 97.28 C92.9 100.08 92.87 102.88 92.8 105.68 C92.44 114.44 92.44 114.44 94 123 C97.28 126.42 100.52 127.68 105 129 C114.91 135.31 120.92 148.34 123.46 159.48 C126.37 178.41 122.58 197.76 111.26 213.4 C105.22 220.15 96.25 225.4 87.21 226.43 C84.1 226.44 81.09 226.32 78 226 C77.9 226.66 77.8 227.32 77.69 228 C71.94 252.93 53.57 276.01 32.48 289.91 C14.69 300.85 -4.22 307.42 -25.25 307.31 C-26.35 307.31 -27.44 307.3 -28.57 307.3 C-56.91 306.89 -81 294.42 -101.19 275.25 C-109.84 266.22 -116.66 256.4 -122.06 245.12 C-122.62 243.97 -122.62 243.97 -123.18 242.79 C-125.54 237.63 -126.99 232.57 -128 227 C-128.98 227.09 -128.98 227.09 -129.98 227.18 C-140.82 227.71 -149.72 223.87 -157.97 216.93 C-164.95 210.28 -168.81 203.04 -172 194 C-172.32 193.14 -172.64 192.28 -172.97 191.39 C-177.73 176.8 -175.69 159.51 -169.38 145.75 C-163.69 135.25 -155.5 126.83 -144 123 C-143.99 121.97 -143.98 120.94 -143.97 119.87 C-143.93 115.96 -143.87 112.04 -143.79 108.13 C-143.76 106.45 -143.74 104.77 -143.73 103.09 C-143.48 75.46 -135.01 50.72 -115 31 C-84.7 3.36 -40.16 -8.44 0 0 Z M-105 54 C-105.78 54.66 -106.56 55.33 -107.37 56.01 C-115.33 63.27 -121.56 73.53 -122.13 84.51 C-122.13 85.4 -122.14 86.29 -122.14 87.2 C-122.15 88.23 -122.15 89.26 -122.16 90.31 C-122.16 91.43 -122.16 92.55 -122.16 93.7 C-122.17 94.88 -122.17 96.07 -122.18 97.29 C-122.19 100.53 -122.2 103.77 -122.2 107.02 C-122.2 109.05 -122.21 111.09 -122.21 113.12 C-122.23 119.51 -122.24 125.89 -122.24 132.28 C-122.24 139.61 -122.26 146.94 -122.29 154.27 C-122.31 159.96 -122.32 165.65 -122.32 171.34 C-122.32 174.72 -122.33 178.11 -122.35 181.5 C-122.44 201.86 -121.08 219.13 -113 238 C-112.55 239.06 -112.1 240.12 -111.63 241.21 C-107.84 249.38 -102.65 256.07 -97 263 C-96.5 263.67 -96 264.34 -95.48 265.02 C-82.15 282.18 -57.89 292.94 -37.01 295.78 C-10.92 298.67 14.66 290.16 35 274 C35.98 273.23 35.98 273.23 36.99 272.44 C56.69 256.32 68.65 230.61 71.25 205.57 C71.42 202.89 71.53 200.22 71.61 197.54 C71.65 196.45 71.69 195.37 71.73 194.26 C72.28 175.59 72.19 156.91 72.19 138.24 C72.19 132.53 72.2 126.82 72.22 121.12 C72.23 116.68 72.23 112.24 72.23 107.81 C72.23 105.7 72.23 103.6 72.24 101.49 C72.25 98.56 72.25 95.63 72.24 92.7 C72.25 91.84 72.25 90.99 72.26 90.11 C72.2 77.93 68.36 66.95 60 57.87 C50.93 49.39 40.97 42.72 30 37 C28.72 36.29 28.72 36.29 27.41 35.57 C-13.72 14.62 -71.11 24.41 -105 54 Z "
        fill="#1C1D2C" transform="translate(540,297)" />
    <path
        d="M0 0 C0 2.64 0 5.28 0 8 C-0.59 8.17 -1.18 8.34 -1.79 8.52 C-2.58 8.76 -3.37 9 -4.19 9.25 C-4.96 9.48 -5.74 9.71 -6.54 9.95 C-12.09 12.32 -14.7 15.64 -17.25 21 C-17.75 22.03 -18.25 23.06 -18.77 24.12 C-23.01 34.01 -21.72 45.12 -18.26 55.08 C-15.13 62.32 -11.17 66.74 -4 70 C-2.35 70.33 -0.7 70.66 1 71 C1.5 77.44 1.5 77.44 2 84 C-5.67 84.83 -11.45 81.56 -17.58 77.14 C-27 68.8 -30.37 56.19 -31.2 44.03 C-31.4 31.18 -29.34 20.12 -21 10 C-15.23 4.26 -8.33 0 0 0 Z "
        fill="#F4F1EC" transform="translate(407,429)" />
    <path
        d="M0 0 C9.26 0.34 15.02 4.67 21.31 11.25 C30.44 22.01 31.03 35.5 30 49 C28.4 60.43 24.11 71.6 14.78 78.82 C9.1 82.59 4.61 83.35 -2 83 C-2.36 78.76 -2.34 75.07 -1 71 C1.86 68.94 4.71 67.8 7.98 66.48 C14.41 63.33 17.04 56.69 19.39 50.24 C20.49 46.2 20.47 42.22 20.44 38.06 C20.46 37.22 20.48 36.38 20.5 35.51 C20.49 26.42 17.11 19.32 11.02 12.66 C7.73 9.95 4.11 8.9 0 8 C0 5.36 0 2.72 0 0 Z "
        fill="#F2F0EB" transform="translate(623,429)" />
    <path
        d="M0 0 C1.89 1.57 1.89 1.57 3.69 3.69 C10.08 10.33 15.68 13.17 24.93 13.54 C34.22 13.63 43.3 13.35 50.45 6.73 C51.96 5.14 53.43 3.51 54.83 1.83 C57 0 57 0 60.14 -0.39 C63 0 63 0 65 2 C65.56 4.62 65.56 4.62 65 8 C58.41 17.63 48.96 23.48 37.57 25.68 C25.17 27.21 12.45 26.4 2.11 18.8 C-7.69 10.43 -7.69 10.43 -8.4 4.84 C-8.27 3.91 -8.14 2.97 -8 2 C-4.76 -0.16 -3.76 -0.53 0 0 Z "
        fill="#1D1E2D" transform="translate(486,534)" />
    <path
        d="M0 0 C4.86 2.3 7.63 5.18 10 10 C10.9 15.64 10.26 20.22 7 25 C3.28 28.75 0.09 30.8 -5.25 31.31 C-9.74 30.94 -12.52 29.83 -16 27 C-20.1 21.71 -21.57 17.7 -21 11 C-16.09 1.55 -10.4 -1.66 0 0 Z "
        fill="#1D1F2D" transform="translate(568,455)" />
    <path
        d="M0 0 C3.92 2.06 6.4 4.13 7.9 8.28 C8.57 14.46 8.69 20.09 4.9 25.28 C-0.38 29.35 -4.42 30.93 -11.1 30.28 C-15.33 28.48 -18.35 26.28 -21.1 22.59 C-22.73 17.21 -23.55 12.09 -20.89 6.93 C-15.63 -0.4 -8.88 -3.05 0 0 Z "
        fill="#1C1D2C" transform="translate(474.1015625,455.72265625)" />
    <path
        d="M0 0 C5.53 0.06 10.75 0.86 16.16 1.92 C17.04 2.08 17.92 2.24 18.83 2.4 C32.43 5.01 32.43 5.01 36.6 9.17 C36.86 12.23 37.03 14.38 35.54 17.11 C30.01 20.14 19.29 15.44 13.51 13.99 C9.19 12.93 5 12.04 0.57 11.62 C-3.4 11.17 -3.4 11.17 -5.53 9.48 C-6.7 6.38 -6.25 4.34 -5.4 1.17 C-3.81 -0.42 -2.2 0.01 0 0 Z "
        fill="#1F202E" transform="translate(551.40234375,430.828125)" />
    <path
        d="M0 0 C0.85 -0 1.7 -0.01 2.58 -0.01 C4.75 0.12 4.75 0.12 6.75 1.12 C6.75 3.76 6.75 6.4 6.75 9.12 C1.27 11.77 -3.74 12.89 -9.75 13.69 C-16.5 14.6 -16.5 14.6 -23.11 16.2 C-26.66 17.24 -29.57 17.41 -33.25 17.12 C-35.25 15.12 -35.25 15.12 -35.56 12.19 C-35.25 9.12 -35.25 9.12 -34.02 7.52 C-31.89 5.84 -30.22 5.37 -27.57 4.77 C-26.66 4.56 -25.75 4.35 -24.81 4.13 C-23.87 3.92 -22.92 3.72 -21.94 3.5 C-21 3.28 -20.06 3.07 -19.1 2.84 C-12.74 1.39 -6.55 -0.02 0 0 Z "
        fill="#1C1D2C" transform="translate(477.25,430.875)" />
    <path
        d="M0 0 C0 13.53 0 27.06 0 41 C-4.63 39.84 -6.49 37.86 -9 34 C-11.37 29.47 -11.37 25.19 -11.38 20.19 C-11.41 19.03 -11.41 19.03 -11.45 17.86 C-11.48 12.1 -10.16 7.83 -7 3 C-4.37 0.45 -3.69 0 0 0 Z "
        fill="#F4F2ED" transform="translate(407,448)" />
    <path
        d="M0 0 C5.64 2.26 5.64 2.26 7.75 5.94 C8.16 6.63 8.56 7.32 8.98 8.03 C12.35 14.57 11.93 22.94 10.32 29.97 C8.3 35.53 5.92 38.72 1 42 C0.67 42 0.34 42 0 42 C0 28.14 0 14.28 0 0 Z "
        fill="#F3F1EB" transform="translate(623,447)" />
    <path
        d="M0 0 C1.32 0 2.64 0 4 0 C4.33 2.97 4.66 5.94 5 9 C5.66 8.67 6.32 8.34 7 8 C8.81 7.88 10.62 7.82 12.44 7.81 C13.41 7.8 14.37 7.78 15.37 7.77 C18 8 18 8 21 10 C21 6.7 21 3.4 21 0 C23.48 0.5 23.48 0.5 26 1 C26.08 3.27 26.14 5.54 26.19 7.81 C26.24 9.71 26.24 9.71 26.29 11.64 C26 15 26 15 24.91 16.97 C21.95 18.57 19.55 18 16.25 17.62 C10.51 17.02 10.51 17.02 4.81 17.62 C2 18 2 18 0.34 16.97 C-1.69 13.99 -1.32 11.43 -1.25 7.88 C-1.23 6.61 -1.22 5.35 -1.2 4.05 C-1 1 -1 1 0 0 Z "
        fill="#2A2935" transform="translate(502,499)" />
    <path
        d="M0 0 C0 2.64 0 5.28 0 8 C-0.59 8.17 -1.18 8.34 -1.79 8.52 C-8.37 10.53 -12.76 12.63 -16.31 18.75 C-16.87 19.82 -17.43 20.89 -18 22 C-18.66 22 -19.32 22 -20 22 C-20.33 21.34 -20.66 20.68 -21 20 C-23.53 19.34 -23.53 19.34 -26 19 C-23.83 11.83 -18.45 6.54 -12 3 C-7.99 1.4 -4.34 0 0 0 Z "
        fill="#EBE8E5" transform="translate(407,429)" />
</svg>